<?xml version="1.0" encoding="utf-8"?>
<!-- Generator: Adobe Illustrator 19.0.0, SVG Export Plug-In . SVG Version: 6.00 Build 0)  -->
<svg version="1.1" id="Layer_1" xmlns="http://www.w3.org/2000/svg" xmlns:xlink="http://www.w3.org/1999/xlink" x="0px" y="0px"
	 viewBox="0 0 275 75" style="enable-background:new 0 0 275 75;" xml:space="preserve">
<style type="text/css">
	.st0{fill:#EEEEE9;}
	.st1{fill:#111116;}
	.st2{fill:none;stroke:#111116;stroke-width:2;stroke-miterlimit:10;}
</style>
<rect id="XMLID_1_" x="0" y="4.4" class="st0" width="149.8" height="66.2"/>
<path id="XMLID_4_" class="st1" d="M17.1,11.3v9.5h9.2V28h-9.3v14.5c0,3.2,1.8,4.8,4.3,4.8c1.3,0,2.8-0.4,4-1l2.3,7.1
	c-2.4,1-4.3,1.4-6.9,1.4c-7.3,0.3-12-3.9-12-12.2V28H2.6v-7.1h6.2v-8.6L17.1,11.3z"/>
<path id="XMLID_6_" class="st1" d="M67.1,20.8L46.6,68.3h-9.1l6.2-14.5L30.4,20.8H40l5.1,14.5l3.2,9.4l3.5-9.2l6.1-14.7H67.1z"/>
<path id="XMLID_8_" class="st1" d="M71.4,68.3V20.8h7.7l0.5,4.6c2.6-3.7,7.1-5.4,10.9-5.4c10.3,0,17.2,7.7,17.2,17.5
	c0,9.8-6.2,17.5-16.9,17.5c-3.5,0-8.8-1.1-11.1-4.8v17.9H71.4z M99.5,37.6c0-5.2-3.5-9.5-9.5-9.5c-6,0-9.5,4.3-9.5,9.5
	c0,5.2,3.9,9.5,9.5,9.5C95.6,47.1,99.5,42.8,99.5,37.6z"/>
<path id="XMLID_11_" class="st1" d="M120.9,40.5c0.5,4.1,4.1,7.1,10,7.1c3.1,0,7.1-1.2,9-3.1l5.3,5.2c-3.5,3.7-9.3,5.4-14.4,5.4
	c-11.5,0-18.4-7.1-18.4-17.9c0-10.2,6.9-17.5,17.8-17.5c11.2,0,18.2,6.9,16.9,20.7H120.9z M139.1,33.6c-0.5-4.3-3.9-6.5-8.7-6.5
	c-4.5,0-8.2,2.2-9.4,6.5H139.1z"/>
<g id="XMLID_16_">
	<path id="XMLID_44_" class="st0" d="M163.5,71.6V36.3H155v-12h8.6v-2.1c0-14,10-19,18.5-19c4.2,0,8.6,1.4,12.5,3.9l0.7,0.5
		L190.2,18l-0.9-0.6c-2.4-1.5-4.4-2.3-6.4-2.3c-3.7,0-5.9,2.6-5.9,7.2v2.1h13.5v12h-13.5v35.3H163.5z"/>
	<path id="XMLID_43_" class="st2" d="M163.5,71.6V36.3H155v-12h8.6v-2.1c0-14,10-19,18.5-19c4.2,0,8.6,1.4,12.5,3.9l0.7,0.5
		L190.2,18l-0.9-0.6c-2.4-1.5-4.4-2.3-6.4-2.3c-3.7,0-5.9,2.6-5.9,7.2v2.1h13.5v12h-13.5v35.3H163.5z"/>
</g>
<g id="XMLID_18_">
	<path id="XMLID_47_" class="st0" d="M195.3,71.6c-6.8,0-14.8-1-22-8.5l-0.6-0.6l6.8-9.8l0.8,0.9c3.1,3.5,10.5,6,15.1,6.1l0.2,0
		c3.4,0,7-1.7,7-4.5c0-1.7-0.6-3.4-8.2-3.8c-12.9-1-19.9-6.4-19.9-15.2c0-10.6,10.2-15.3,20.4-15.3c8.1,0,13.4,1.8,18.5,6.3l0.7,0.6
		l-7.6,9l-0.8-0.7c-2.8-2.6-6.1-3.8-10.7-3.8c-2.2,0-7.4,0.3-7.4,3.6c0,0.9,0,3.5,7.6,4c9.6,0.6,20.6,3,20.6,15.7
		C216,63.5,209.6,71.6,195.3,71.6z"/>
	<path id="XMLID_46_" class="st2" d="M195.3,71.6c-6.8,0-14.8-1-22-8.5l-0.6-0.6l6.8-9.8l0.8,0.9c3.1,3.5,10.5,6,15.1,6.1l0.2,0
		c3.4,0,7-1.7,7-4.5c0-1.7-0.6-3.4-8.2-3.8c-12.9-1-19.9-6.4-19.9-15.2c0-10.6,10.2-15.3,20.4-15.3c8.1,0,13.4,1.8,18.5,6.3l0.7,0.6
		l-7.6,9l-0.8-0.7c-2.8-2.6-6.1-3.8-10.7-3.8c-2.2,0-7.4,0.3-7.4,3.6c0,0.9,0,3.5,7.6,4c9.6,0.6,20.6,3,20.6,15.7
		C216,63.5,209.6,71.6,195.3,71.6z"/>
</g>
<g id="XMLID_20_">
	<polygon id="XMLID_41_" class="st0" points="240,71.6 223.5,52.5 223.5,71.6 210.1,71.6 210.1,4.5 223.5,4.5 223.5,40.4 
		237.4,23.7 252.5,23.7 252.5,25.7 234.1,46.3 255.1,69.4 255.1,71.6 	"/>
	<polygon id="XMLID_40_" class="st2" points="240,71.6 223.5,52.5 223.5,71.6 210.1,71.6 210.1,4.5 223.5,4.5 223.5,40.4 
		237.4,23.7 252.5,23.7 252.5,25.7 234.1,46.3 255.1,69.4 255.1,71.6 	"/>
</g>
<g id="XMLID_22_">
	<path id="XMLID_38_" class="st0" d="M261,71.6c-5,0-9.2-1.6-12-4.5c-3-3.1-4.5-7.6-4.5-13.2V35h-8.6V23.2h8.6V11.5l13.4-1.4v13.1
		h12.7V35h-12.8v18.8c0,3.6,1.8,5.5,5,5.5c1.5,0,3.4-0.5,5-1.3l1-0.5l3.8,11.7l-0.9,0.3c-3.4,1.3-6.2,1.9-9.7,2
		C261.6,71.6,261.3,71.6,261,71.6z"/>
	<path id="XMLID_37_" class="st2" d="M261,71.6c-5,0-9.2-1.6-12-4.5c-3-3.1-4.5-7.6-4.5-13.2V35h-8.6V23.2h8.6V11.5l13.4-1.4v13.1
		h12.7V35h-12.8v18.8c0,3.6,1.8,5.5,5,5.5c1.5,0,3.4-0.5,5-1.3l1-0.5l3.8,11.7l-0.9,0.3c-3.4,1.3-6.2,1.9-9.7,2
		C261.6,71.6,261.3,71.6,261,71.6z"/>
</g>
<g id="XMLID_14_">
	<path id="XMLID_27_" class="st0" d="M159.8,72.1c-4.1,0-8.2-2.8-8.2-8.1s4.1-8.1,8.2-8.1c4.1,0,8.2,2.8,8.2,8.1
		S163.8,72.1,159.8,72.1z"/>
	<path id="XMLID_26_" class="st2" d="M159.8,72.1c-4.1,0-8.2-2.8-8.2-8.1s4.1-8.1,8.2-8.1c4.1,0,8.2,2.8,8.2,8.1
		S163.8,72.1,159.8,72.1z"/>
</g>
</svg>
